<svg width="13.517578" height="13.517700" viewBox="0 0 13.5176 13.5177" fill="none" xmlns="http://www.w3.org/2000/svg" xmlns:xlink="http://www.w3.org/1999/xlink">
	<desc>
			Created with Pixso.
	</desc>
	<defs/>
	<path id="Vector" d="M13.51 12.81L9.74 9.03C10.64 7.94 11.1 6.54 11 5.13C10.9 3.71 10.27 2.39 9.22 1.44C8.17 0.48 6.8 -0.04 5.38 0C3.96 0.03 2.61 0.61 1.61 1.61C0.61 2.61 0.03 3.96 0 5.38C-0.04 6.8 0.48 8.17 1.44 9.22C2.39 10.27 3.71 10.9 5.13 11C6.54 11.1 7.94 10.64 9.03 9.74L12.81 13.51L13.51 12.81ZM1.01 5.51C1.01 4.62 1.28 3.75 1.77 3.01C2.27 2.27 2.97 1.7 3.79 1.36C4.61 1.01 5.52 0.93 6.39 1.1C7.26 1.27 8.07 1.7 8.69 2.33C9.32 2.96 9.75 3.76 9.93 4.63C10.1 5.51 10.01 6.41 9.67 7.23C9.33 8.06 8.75 8.76 8.01 9.25C7.27 9.75 6.4 10.01 5.51 10.01C4.32 10.01 3.18 9.54 2.33 8.69C1.49 7.85 1.01 6.71 1.01 5.51Z" fill="#2A254B" fill-opacity="1.000000" fill-rule="evenodd"/>
</svg>
